<svg width="16" height="16" viewBox="0 0 16 16" fill="none" xmlns="http://www.w3.org/2000/svg">
<g clip-path="url(#clip0_2452_1853)">
<path fill-rule="evenodd" clip-rule="evenodd" d="M10.4723 6.23615C10.4723 8.57571 8.57571 10.4723 6.23615 10.4723C3.89659 10.4723 2 8.57571 2 6.23615C2 3.89659 3.89659 2 6.23615 2C8.57571 2 10.4723 3.89659 10.4723 6.23615ZM0 6.23615C0 9.68028 2.79202 12.4723 6.23615 12.4723C7.65844 12.4723 8.96952 11.9962 10.0187 11.1946L14.8241 16L16 14.8241L11.1946 10.0187C11.9962 8.96952 12.4723 7.65844 12.4723 6.23615C12.4723 2.79202 9.68028 0 6.23615 0C2.79202 0 0 2.79202 0 6.23615Z" fill="#9BA9AD"/>
</g>
<defs>
<clipPath id="clip0_2452_1853">
<rect width="16" height="16" fill="white"/>
</clipPath>
</defs>
</svg>
